<?xml version="1.0" encoding="iso-8859-1"?>
<!-- Generator: Adobe Illustrator 19.0.0, SVG Export Plug-In . SVG Version: 6.00 Build 0)  -->
<svg version="1.1" id="Layer_1" xmlns="http://www.w3.org/2000/svg" xmlns:xlink="http://www.w3.org/1999/xlink" x="0px" y="0px"
	 viewBox="0 0 463 463" style="enable-background:new 0 0 463 463;" xml:space="preserve">
<g>
	<g>
		<g>
			<path d="M431.5,220h-28.893L252.546,69.939C254.113,66.792,255,63.248,255,59.5c0-12.958-10.542-23.5-23.5-23.5
				S208,46.542,208,59.5c0,3.748,0.887,7.292,2.454,10.439L60.393,220H31.5C14.131,220,0,234.131,0,251.5v144
				C0,412.869,14.131,427,31.5,427h400c17.369,0,31.5-14.131,31.5-31.5v-144C463,234.131,448.869,220,431.5,220z M231.5,51
				c4.687,0,8.5,3.813,8.5,8.5s-3.813,8.5-8.5,8.5s-8.5-3.813-8.5-8.5S226.813,51,231.5,51z M221.061,80.546
				C224.208,82.113,227.752,83,231.5,83s7.292-0.887,10.439-2.454L381.393,220H81.607L221.061,80.546z M448,395.5
				c0,9.099-7.402,16.5-16.5,16.5h-400c-9.098,0-16.5-7.401-16.5-16.5v-144c0-9.099,7.402-16.5,16.5-16.5h400
				c9.098,0,16.5,7.401,16.5,16.5V395.5z"/>
			<path d="M99.5,268C79.925,268,64,283.925,64,303.5v40c0,19.575,15.925,35.5,35.5,35.5s35.5-15.925,35.5-35.5v-40
				C135,283.925,119.075,268,99.5,268z M120,343.5c0,11.304-9.196,20.5-20.5,20.5S79,354.804,79,343.5v-40
				c0-11.304,9.196-20.5,20.5-20.5s20.5,9.196,20.5,20.5V343.5z"/>
			<path d="M187.5,268h-28c-4.142,0-7.5,3.357-7.5,7.5v96c0,4.143,3.358,7.5,7.5,7.5c4.142,0,7.5-3.357,7.5-7.5V339h20.5
				c19.575,0,35.5-15.925,35.5-35.5S207.075,268,187.5,268z M187.5,324H167v-41h20.5c11.304,0,20.5,9.196,20.5,20.5
				C208,314.804,198.804,324,187.5,324z"/>
			<path d="M295.5,283c4.142,0,7.5-3.357,7.5-7.5s-3.358-7.5-7.5-7.5h-48c-4.142,0-7.5,3.357-7.5,7.5v96c0,4.143,3.358,7.5,7.5,7.5
				h48c4.142,0,7.5-3.357,7.5-7.5s-3.358-7.5-7.5-7.5H255v-33h24.5c4.142,0,7.5-3.357,7.5-7.5s-3.358-7.5-7.5-7.5H255v-33H295.5z"/>
			<path d="M383.5,268c-4.142,0-7.5,3.357-7.5,7.5v68.258l-42.021-72.037c-1.708-2.927-5.166-4.347-8.436-3.461
				c-3.271,0.885-5.542,3.852-5.542,7.24v96c0,4.143,3.358,7.5,7.5,7.5c4.142,0,7.5-3.357,7.5-7.5v-68.258l42.021,72.037
				c1.368,2.345,3.859,3.722,6.478,3.722c0.65,0,1.308-0.085,1.958-0.261c3.271-0.885,5.542-3.852,5.542-7.24v-96
				C391,271.357,387.642,268,383.5,268z"/>
		</g>
	</g>
</g>
<g>
</g>
<g>
</g>
<g>
</g>
<g>
</g>
<g>
</g>
<g>
</g>
<g>
</g>
<g>
</g>
<g>
</g>
<g>
</g>
<g>
</g>
<g>
</g>
<g>
</g>
<g>
</g>
<g>
</g>
</svg>
