<svg width="24" height="24" xmlns="http://www.w3.org/2000/svg">

 <g>
  <title>background</title>
  <rect fill="none" id="canvas_background" height="402" width="582" y="-1" x="-1"/>
 </g>
 <g>
  <title>Layer 1</title>
  <path fill="#007f00" id="svg_1" d="m12,2c0.55228,0 1,0.44772 1,1l0.00096,1.06201c3.61832,0.45164 6.48604,3.31969 6.93717,6.93817l1.06187,-0.00018c0.55228,0 1,0.44772 1,1c0,0.55228 -0.44772,1 -1,1l-1.06199,0.00081c-0.45154,3.61802 -3.31906,6.48558 -6.93705,6.93718l-0.00096,1.06201c0,0.55228 -0.44772,1 -1,1c-0.55228,0 -1,-0.44772 -1,-1l0.00005,-1.06189c-3.61844,-0.45119 -6.48643,-3.3189 -6.93804,-6.93721l-1.06201,-0.0009c-0.55228,0 -1,-0.44772 -1,-1c0,-0.55228 0.44772,-1 1,-1l1.06188,0.0001c0.45121,-3.61878 3.31939,-6.48698 6.93817,-6.93821l-0.00005,-1.06189c0,-0.55228 0.44772,-1 1,-1zm0,4c-3.31371,0 -6,2.68629 -6,6c0,3.31371 2.68629,6 6,6c3.31371,0 6,-2.68629 6,-6c0,-3.31371 -2.68629,-6 -6,-6zm0,2c2.20914,0 4,1.79086 4,4c0,2.20914 -1.79086,4 -4,4c-2.20914,0 -4,-1.79086 -4,-4c0,-2.20914 1.79086,-4 4,-4z" fill-rule="evenodd"/>
 </g>
</svg>