<svg width="24" height="24" xmlns="http://www.w3.org/2000/svg">

 <g>
  <title>background</title>
  <rect fill="none" id="canvas_background" height="402" width="582" y="-1" x="-1"/>
 </g>
 <g>
  <title>Layer 1</title>
  <path fill="#9f2042" id="svg_1" d="m12.101521,2c0.552285,0 1,0.447715 1,1l0.000955,1.062013c3.618328,0.451641 6.48604,3.319685 6.937174,6.938171l1.061871,-0.000184c0.552285,0 1,0.447715 1,1c0,0.552285 -0.447715,1 -1,1l-1.061995,0.000812c-0.451536,3.618016 -3.319054,6.485576 -6.93705,6.937175l-0.000955,1.062013c0,0.552285 -0.447715,1 -1,1c-0.552285,0 -1,-0.447715 -1,-1l0.000049,-1.061888c-3.618442,-0.45119 -6.486432,-3.318905 -6.938044,-6.937217l-1.062005,-0.000895c-0.552285,0 -1,-0.447715 -1,-1c0,-0.552285 0.447715,-1 1,-1l1.061881,0.0001c0.451209,-3.618781 3.319394,-6.48698 6.938168,-6.938212l-0.000049,-1.061888c0,-0.552285 0.447715,-1 1,-1zm0,4c-3.313709,0 -6,2.686291 -6,6c0,3.313709 2.686291,6 6,6c3.313709,0 6,-2.686291 6,-6c0,-3.313709 -2.686291,-6 -6,-6zm0,2c2.209139,0 4,1.790861 4,4c0,2.209139 -1.790861,4 -4,4c-2.209139,0 -4,-1.790861 -4,-4c0,-2.209139 1.790861,-4 4,-4z" fill-rule="evenodd"/>
 </g>
</svg>